<?xml version="1.0" encoding="UTF-8"?>
<!DOCTYPE svg PUBLIC "-//W3C//DTD SVG 1.1//EN" "http://www.w3.org/Graphics/SVG/1.1/DTD/svg11.dtd">
<svg xmlns="http://www.w3.org/2000/svg" version="1.1" width="817px" height="140px" style="shape-rendering:geometricPrecision; text-rendering:geometricPrecision; image-rendering:optimizeQuality; fill-rule:evenodd; clip-rule:evenodd" xmlns:xlink="http://www.w3.org/1999/xlink">
<g><path style="opacity:0.973" fill="#fec100" d="M 740.5,-0.5 C 742.167,-0.5 743.833,-0.5 745.5,-0.5C 753.03,12.0556 760.697,24.5556 768.5,37C 771.554,39.1939 774.888,40.8605 778.5,42C 788.5,44 798.5,46 808.5,48C 811.565,48.3683 814.232,49.535 816.5,51.5C 816.5,53.1667 816.5,54.8333 816.5,56.5C 807.867,65.3022 799.367,74.3022 791,83.5C 788.186,87.9242 786.686,92.7575 786.5,98C 788.331,110.803 789.497,123.637 790,136.5C 788.855,137.636 787.688,138.636 786.5,139.5C 785.833,139.5 785.167,139.5 784.5,139.5C 773.591,134.382 762.591,129.215 751.5,124C 744.245,121.781 737.245,122.448 730.5,126C 720.953,130.275 711.62,134.775 702.5,139.5C 701.5,139.5 700.5,139.5 699.5,139.5C 697.056,138.129 695.722,135.962 695.5,133C 697.162,121.539 698.496,110.039 699.5,98.5C 699.518,95.0762 699.018,91.7428 698,88.5C 689.746,77.5751 680.746,67.2418 671,57.5C 668.791,53.7929 669.624,50.9596 673.5,49C 685.115,46.4104 696.782,44.077 708.5,42C 713.412,40.2916 717.579,37.4583 721,33.5C 727.259,21.9762 733.759,10.6429 740.5,-0.5 Z"/></g>
<g><path style="opacity:0.974" fill="#fec100" d="M 117.5,139.5 C 115.5,139.5 113.5,139.5 111.5,139.5C 101.713,134.441 91.7134,129.608 81.5,125C 73.9051,122.66 66.5718,123.327 59.5,127C 50.6203,130.941 41.9536,135.108 33.5,139.5C 31.5,139.5 29.5,139.5 27.5,139.5C 26.1086,137.411 25.4419,135.078 25.5,132.5C 26.943,121.013 28.2764,109.513 29.5,98C 29.2866,94.3582 28.4532,90.8582 27,87.5C 18.3359,77.0041 9.16922,67.0041 -0.5,57.5C -0.5,55.5 -0.5,53.5 -0.5,51.5C 1.35943,50.4058 3.35943,49.5725 5.5,49C 17.2184,46.923 28.8851,44.5896 40.5,42C 44.579,39.9249 48.079,37.0916 51,33.5C 57,22.8333 63,12.1667 69,1.5C 72.5254,-0.190275 75.5254,0.476392 78,3.5C 84.2037,15.4129 91.0371,26.9129 98.5,38C 100.67,39.5862 103.004,40.9196 105.5,42C 118.167,44.6667 130.833,47.3333 143.5,50C 146.791,52.332 147.291,55.1653 145,58.5C 138.031,66.4697 130.698,74.1364 123,81.5C 116.922,88.7828 114.922,97.1161 117,106.5C 118.167,115.669 119.334,124.835 120.5,134C 120.387,136.399 119.387,138.232 117.5,139.5 Z"/></g>
<g><path style="opacity:0.974" fill="#fec100" d="M 286.5,139.5 C 284.5,139.5 282.5,139.5 280.5,139.5C 270.713,134.441 260.713,129.608 250.5,125C 242.905,122.66 235.572,123.327 228.5,127C 219.62,130.941 210.954,135.108 202.5,139.5C 200.5,139.5 198.5,139.5 196.5,139.5C 195.005,137.669 194.338,135.502 194.5,133C 196.404,119.87 197.571,106.704 198,93.5C 197.197,90.7558 196.197,88.0891 195,85.5C 186.333,76.1667 177.667,66.8333 169,57.5C 167.681,52.6395 169.514,49.8061 174.5,49C 184.858,47.1285 195.191,45.1285 205.5,43C 211.366,41.4789 216.2,38.3123 220,33.5C 226,22.8333 232,12.1667 238,1.5C 241.525,-0.190275 244.525,0.476392 247,3.5C 253.204,15.4129 260.037,26.9129 267.5,38C 269.67,39.5862 272.004,40.9196 274.5,42C 287.167,44.6667 299.833,47.3333 312.5,50C 315.791,52.332 316.291,55.1653 314,58.5C 307.031,66.4697 299.698,74.1364 292,81.5C 285.971,88.438 283.971,96.438 286,105.5C 287.044,115.017 288.211,124.517 289.5,134C 289.387,136.399 288.387,138.232 286.5,139.5 Z"/></g>
<g><path style="opacity:0.973" fill="#fec100" d="M 454.5,139.5 C 452.5,139.5 450.5,139.5 448.5,139.5C 438.713,134.441 428.713,129.608 418.5,125C 410.905,122.66 403.572,123.327 396.5,127C 387.62,130.941 378.954,135.108 370.5,139.5C 368.5,139.5 366.5,139.5 364.5,139.5C 362.985,137.497 362.319,135.163 362.5,132.5C 363.906,121.176 365.24,109.843 366.5,98.5C 366.228,93.4009 364.728,88.7342 362,84.5C 353.667,75.5 345.333,66.5 337,57.5C 335.681,52.6395 337.514,49.8061 342.5,49C 352.854,47.1077 363.187,45.1077 373.5,43C 379.378,41.4747 384.211,38.308 388,33.5C 393.667,23.1667 399.333,12.8333 405,2.5C 408.619,-0.342837 411.952,-0.00950391 415,3.5C 421.204,15.4129 428.037,26.9129 435.5,38C 437.67,39.5862 440.004,40.9196 442.5,42C 455.167,44.6667 467.833,47.3333 480.5,50C 483.791,52.332 484.291,55.1653 482,58.5C 475.031,66.4697 467.698,74.1364 460,81.5C 453.922,88.7828 451.922,97.1161 454,106.5C 454.985,115.528 456.151,124.528 457.5,133.5C 457.246,135.961 456.246,137.961 454.5,139.5 Z"/></g>
<g><path style="opacity:0.973" fill="#fec100" d="M 622.5,139.5 C 620.5,139.5 618.5,139.5 616.5,139.5C 606.713,134.441 596.713,129.608 586.5,125C 578.905,122.66 571.572,123.327 564.5,127C 555.62,130.941 546.954,135.108 538.5,139.5C 536.5,139.5 534.5,139.5 532.5,139.5C 530.985,137.497 530.319,135.163 530.5,132.5C 531.669,121.148 533.002,109.814 534.5,98.5C 534.234,93.4359 532.734,88.7692 530,84.5C 521.667,75.5 513.333,66.5 505,57.5C 503.181,52.3173 505.014,49.4839 510.5,49C 520.813,46.8923 531.146,44.8923 541.5,43C 547.378,41.4747 552.211,38.308 556,33.5C 561.667,23.1667 567.333,12.8333 573,2.5C 576.619,-0.342837 579.952,-0.00950391 583,3.5C 589.204,15.4129 596.037,26.9129 603.5,38C 605.67,39.5862 608.004,40.9196 610.5,42C 623.167,44.6667 635.833,47.3333 648.5,50C 651.791,52.332 652.291,55.1653 650,58.5C 642.333,66.5 634.667,74.5 627,82.5C 621.745,89.9858 620.079,98.3192 622,107.5C 623.095,116.353 624.261,125.186 625.5,134C 624.876,136.085 623.876,137.918 622.5,139.5 Z"/></g>
</svg>
