<?xml version="1.0" encoding="UTF-8"?>
<!DOCTYPE svg PUBLIC "-//W3C//DTD SVG 1.1//EN" "http://www.w3.org/Graphics/SVG/1.1/DTD/svg11.dtd">
<svg xmlns="http://www.w3.org/2000/svg" version="1.1" width="819px" height="140px" style="shape-rendering:geometricPrecision; text-rendering:geometricPrecision; image-rendering:optimizeQuality; fill-rule:evenodd; clip-rule:evenodd" xmlns:xlink="http://www.w3.org/1999/xlink">
<g><path style="opacity:0.973" fill="#fec100" d="M 70.5,-0.5 C 71.1667,-0.5 71.8333,-0.5 72.5,-0.5C 72.5,40.8333 72.5,82.1667 72.5,123.5C 70.4727,123.338 68.4727,123.505 66.5,124C 55.2694,128.899 44.2694,134.065 33.5,139.5C 31.5,139.5 29.5,139.5 27.5,139.5C 25.9854,137.497 25.3187,135.163 25.5,132.5C 26.8333,120.834 28.1666,109.167 29.5,97.5C 29.1818,94.0439 28.3484,90.7106 27,87.5C 17.968,76.9727 8.8013,66.6393 -0.5,56.5C -0.5,54.8333 -0.5,53.1667 -0.5,51.5C 0.682751,50.4955 2.01608,49.6622 3.5,49C 15.1667,46.6667 26.8333,44.3333 38.5,42C 42.8974,40.3834 46.7308,37.8834 50,34.5C 56.3404,22.4772 63.1738,10.8105 70.5,-0.5 Z"/></g>
<g><path style="opacity:0.972" fill="#dfe0df" d="M 74.5,-0.5 C 74.8333,-0.5 75.1667,-0.5 75.5,-0.5C 82.241,10.6429 88.741,21.9762 95,33.5C 97.9889,37.4906 101.822,40.324 106.5,42C 119.366,44.087 132.033,46.9204 144.5,50.5C 145.553,51.4383 146.22,52.605 146.5,54C 145.076,57.0922 143.243,59.9255 141,62.5C 134.102,69.3085 127.436,76.3085 121,83.5C 117.483,88.0541 115.983,93.2208 116.5,99C 117.469,110.717 118.802,122.384 120.5,134C 120.105,136.248 119.105,138.082 117.5,139.5C 115.5,139.5 113.5,139.5 111.5,139.5C 99.7909,132.814 87.4576,127.481 74.5,123.5C 74.5,82.1667 74.5,40.8333 74.5,-0.5 Z"/></g>
<g><path style="opacity:0.972" fill="#dfe0df" d="M 239.5,-0.5 C 241.167,-0.5 242.833,-0.5 244.5,-0.5C 251.241,10.6429 257.741,21.9762 264,33.5C 266.989,37.4906 270.822,40.324 275.5,42C 288.28,44.156 300.947,46.8227 313.5,50C 316.218,53.3022 316.052,56.4688 313,59.5C 304.969,67.1968 297.302,75.1968 290,83.5C 285.833,90.2576 284.5,97.5909 286,105.5C 286.948,115.029 288.114,124.529 289.5,134C 289.387,136.399 288.387,138.232 286.5,139.5C 284.5,139.5 282.5,139.5 280.5,139.5C 270.713,134.441 260.713,129.608 250.5,125C 242.905,122.66 235.572,123.327 228.5,127C 219.62,130.941 210.954,135.108 202.5,139.5C 200.5,139.5 198.5,139.5 196.5,139.5C 195.005,137.669 194.338,135.502 194.5,133C 196.258,119.855 197.424,106.688 198,93.5C 197.197,90.7558 196.197,88.0891 195,85.5C 186.667,76.5 178.333,67.5 170,58.5C 167.428,54.3382 168.262,51.1716 172.5,49C 184.167,46.6667 195.833,44.3333 207.5,42C 211.897,40.3834 215.731,37.8834 219,34.5C 225.34,22.4772 232.174,10.8105 239.5,-0.5 Z"/></g>
<g><path style="opacity:0.974" fill="#dfe0df" d="M 409.5,-0.5 C 411.167,-0.5 412.833,-0.5 414.5,-0.5C 421.161,10.1494 427.328,21.1494 433,32.5C 436.315,36.8182 440.481,39.9848 445.5,42C 457.167,44.3333 468.833,46.6667 480.5,49C 482.846,50.0128 484.513,51.6794 485.5,54C 484.076,57.0922 482.243,59.9255 480,62.5C 471.393,70.4153 463.726,79.082 457,88.5C 456.011,91.4557 455.178,94.4557 454.5,97.5C 456.058,109.687 457.724,121.853 459.5,134C 458.876,136.085 457.876,137.918 456.5,139.5C 454.5,139.5 452.5,139.5 450.5,139.5C 440.713,134.441 430.713,129.608 420.5,125C 414.5,123 408.5,123 402.5,125C 392.287,129.608 382.287,134.441 372.5,139.5C 370.5,139.5 368.5,139.5 366.5,139.5C 364.956,137.153 364.289,134.486 364.5,131.5C 365.724,120.322 367.057,109.155 368.5,98C 368.154,93.115 366.654,88.615 364,84.5C 355.667,75.5 347.333,66.5 339,57.5C 337.621,53.5245 338.787,50.6912 342.5,49C 356.003,46.6334 369.336,43.6334 382.5,40C 384.241,38.3804 386.075,36.8804 388,35.5C 394.926,23.3069 402.093,11.3069 409.5,-0.5 Z"/></g>
<g><path style="opacity:0.974" fill="#dfe0df" d="M 577.5,-0.5 C 579.167,-0.5 580.833,-0.5 582.5,-0.5C 588.506,9.6881 594.339,20.0214 600,30.5C 603.274,35.7742 607.774,39.6075 613.5,42C 626.327,44.2647 638.994,47.0981 651.5,50.5C 652.553,51.4383 653.22,52.605 653.5,54C 652.076,57.0922 650.243,59.9255 648,62.5C 639.393,70.4153 631.726,79.082 625,88.5C 624.011,91.4557 623.178,94.4557 622.5,97.5C 624.208,109.667 625.875,121.833 627.5,134C 626.876,136.085 625.876,137.918 624.5,139.5C 622.5,139.5 620.5,139.5 618.5,139.5C 608.713,134.441 598.713,129.608 588.5,125C 582.5,123 576.5,123 570.5,125C 560.287,129.608 550.287,134.441 540.5,139.5C 538.5,139.5 536.5,139.5 534.5,139.5C 532.956,137.153 532.289,134.486 532.5,131.5C 533.724,120.322 535.057,109.155 536.5,98C 535.604,90.3748 532.437,83.8748 527,78.5C 519.968,71.8028 513.302,64.8028 507,57.5C 505.621,53.5245 506.787,50.6912 510.5,49C 524.003,46.6334 537.336,43.6334 550.5,40C 552.241,38.3804 554.075,36.8804 556,35.5C 562.926,23.3069 570.093,11.3069 577.5,-0.5 Z"/></g>
<g><path style="opacity:0.973" fill="#dfe0df" d="M 742.5,-0.5 C 744.167,-0.5 745.833,-0.5 747.5,-0.5C 754.413,9.64859 760.579,20.3153 766,31.5C 769.1,36.8001 773.6,40.3001 779.5,42C 791.167,44.3333 802.833,46.6667 814.5,49C 815.984,49.6622 817.317,50.4955 818.5,51.5C 818.5,53.1667 818.5,54.8333 818.5,56.5C 811.248,64.6167 803.748,72.6167 796,80.5C 791.178,85.314 788.678,91.1473 788.5,98C 789.724,109.513 791.057,121.013 792.5,132.5C 792.558,135.078 791.891,137.411 790.5,139.5C 788.5,139.5 786.5,139.5 784.5,139.5C 776.046,135.108 767.38,130.941 758.5,127C 751.428,123.327 744.095,122.66 736.5,125C 726.287,129.608 716.287,134.441 706.5,139.5C 704.5,139.5 702.5,139.5 700.5,139.5C 698.613,138.232 697.613,136.399 697.5,134C 699.697,120.232 700.864,106.399 701,92.5C 700.241,89.2154 698.908,86.2154 697,83.5C 688.667,74.5 680.333,65.5 672,56.5C 671.043,52.5855 672.543,50.0855 676.5,49C 686.446,46.7442 696.446,44.7442 706.5,43C 713.281,42.027 718.781,38.8604 723,33.5C 729.259,21.9762 735.759,10.6429 742.5,-0.5 Z"/></g>
<g><path style="opacity:1" fill="#dfe1ea" d="M 72.5,-0.5 C 73.1667,-0.5 73.8333,-0.5 74.5,-0.5C 74.5,40.8333 74.5,82.1667 74.5,123.5C 73.8333,123.5 73.1667,123.5 72.5,123.5C 72.5,82.1667 72.5,40.8333 72.5,-0.5 Z"/></g>
</svg>
