<?xml version="1.0" encoding="UTF-8"?>
<!DOCTYPE svg PUBLIC "-//W3C//DTD SVG 1.1//EN" "http://www.w3.org/Graphics/SVG/1.1/DTD/svg11.dtd">
<svg xmlns="http://www.w3.org/2000/svg" version="1.1" width="817px" height="140px" style="shape-rendering:geometricPrecision; text-rendering:geometricPrecision; image-rendering:optimizeQuality; fill-rule:evenodd; clip-rule:evenodd" xmlns:xlink="http://www.w3.org/1999/xlink">
<g><path style="opacity:0.973" fill="#fec100" d="M 70.5,-0.5 C 72.1667,-0.5 73.8333,-0.5 75.5,-0.5C 82.241,10.6429 88.741,21.9762 95,33.5C 99.2188,38.8604 104.719,42.027 111.5,43C 121.552,44.7437 131.552,46.7437 141.5,49C 145.457,50.0855 146.957,52.5855 146,56.5C 137.667,65.5 129.333,74.5 121,83.5C 116.72,90.5632 115.387,98.2298 117,106.5C 118.167,115.669 119.334,124.835 120.5,134C 120.387,136.399 119.387,138.232 117.5,139.5C 115.5,139.5 113.5,139.5 111.5,139.5C 101.713,134.441 91.7134,129.608 81.5,125C 73.9051,122.66 66.5718,123.327 59.5,127C 50.6203,130.941 41.9536,135.108 33.5,139.5C 31.5,139.5 29.5,139.5 27.5,139.5C 26.1086,137.411 25.4419,135.078 25.5,132.5C 26.943,121.013 28.2764,109.513 29.5,98C 29.3223,91.1473 26.8223,85.314 22,80.5C 14.252,72.6167 6.75197,64.6167 -0.5,56.5C -0.5,54.8333 -0.5,53.1667 -0.5,51.5C 0.682751,50.4955 2.01608,49.6622 3.5,49C 15.1667,46.6667 26.8333,44.3333 38.5,42C 44.3995,40.3001 48.8995,36.8001 52,31.5C 57.4206,20.3153 63.5873,9.64859 70.5,-0.5 Z"/></g>
<g><path style="opacity:0.972" fill="#dfe0df" d="M 237.5,-0.5 C 239.167,-0.5 240.833,-0.5 242.5,-0.5C 249.241,10.6429 255.741,21.9762 262,33.5C 265.421,37.4583 269.588,40.2916 274.5,42C 286.164,44.3328 297.831,46.6662 309.5,49C 314.251,51.7721 314.751,55.2721 311,59.5C 303.436,66.975 296.103,74.6416 289,82.5C 283.952,89.0315 282.285,96.3648 284,104.5C 285.167,114 286.333,123.5 287.5,133C 287.518,135.41 286.851,137.577 285.5,139.5C 283.167,139.5 280.833,139.5 278.5,139.5C 268.713,134.441 258.713,129.608 248.5,125C 242.833,123 237.167,123 231.5,125C 221.022,129.758 210.688,134.592 200.5,139.5C 198.5,139.5 196.5,139.5 194.5,139.5C 193.109,137.411 192.442,135.078 192.5,132.5C 194.66,119.228 195.827,105.894 196,92.5C 194.861,88.8878 193.194,85.5544 191,82.5C 182.969,74.8032 175.302,66.8032 168,58.5C 165.428,54.3382 166.262,51.1716 170.5,49C 182.169,46.6662 193.836,44.3328 205.5,42C 211.4,40.3001 215.9,36.8001 219,31.5C 224.926,20.6424 231.092,9.97569 237.5,-0.5 Z"/></g>
<g><path style="opacity:0.973" fill="#dfe0df" d="M 407.5,-0.5 C 409.167,-0.5 410.833,-0.5 412.5,-0.5C 419.241,10.6429 425.741,21.9762 432,33.5C 434.989,37.4906 438.822,40.324 443.5,42C 456.327,44.2647 468.994,47.0981 481.5,50.5C 482.553,51.4383 483.22,52.605 483.5,54C 482.076,57.0922 480.243,59.9255 478,62.5C 471.102,69.3085 464.436,76.3085 458,83.5C 454.483,88.0541 452.983,93.2208 453.5,99C 454.469,110.717 455.802,122.384 457.5,134C 456.876,136.085 455.876,137.918 454.5,139.5C 452.5,139.5 450.5,139.5 448.5,139.5C 438.713,134.441 428.713,129.608 418.5,125C 411.693,122.79 405.027,123.123 398.5,126C 388.953,130.275 379.62,134.775 370.5,139.5C 368.5,139.5 366.5,139.5 364.5,139.5C 362.985,137.497 362.319,135.163 362.5,132.5C 363.797,120.996 365.13,109.496 366.5,98C 366.033,93.6327 364.867,89.4661 363,85.5C 354.667,76.5 346.333,67.5 338,58.5C 335.428,54.3382 336.262,51.1716 340.5,49C 352.167,46.6667 363.833,44.3333 375.5,42C 379.897,40.3834 383.731,37.8834 387,34.5C 393.34,22.4772 400.174,10.8105 407.5,-0.5 Z"/></g>
<g><path style="opacity:0.973" fill="#dfe0df" d="M 575.5,-0.5 C 577.167,-0.5 578.833,-0.5 580.5,-0.5C 587.241,10.6429 593.741,21.9762 600,33.5C 602.989,37.4906 606.822,40.324 611.5,42C 624.327,44.2647 636.994,47.0981 649.5,50.5C 650.553,51.4383 651.22,52.605 651.5,54C 643.761,64.4121 635.261,74.2455 626,83.5C 622.377,88.206 620.877,93.5393 621.5,99.5C 622.383,111.06 623.716,122.56 625.5,134C 624.876,136.085 623.876,137.918 622.5,139.5C 620.5,139.5 618.5,139.5 616.5,139.5C 606.713,134.441 596.713,129.608 586.5,125C 579.693,122.79 573.027,123.123 566.5,126C 556.953,130.275 547.62,134.775 538.5,139.5C 536.5,139.5 534.5,139.5 532.5,139.5C 530.985,137.497 530.319,135.163 530.5,132.5C 531.71,120.985 533.043,109.485 534.5,98C 534.238,95.4528 533.738,92.9528 533,90.5C 531.148,85.977 528.482,81.977 525,78.5C 517.968,71.8028 511.302,64.8028 505,57.5C 503.621,53.5245 504.787,50.6912 508.5,49C 520.167,46.6667 531.833,44.3333 543.5,42C 547.897,40.3834 551.731,37.8834 555,34.5C 561.34,22.4772 568.174,10.8105 575.5,-0.5 Z"/></g>
<g><path style="opacity:0.973" fill="#dfe0df" d="M 740.5,-0.5 C 742.167,-0.5 743.833,-0.5 745.5,-0.5C 752.413,9.64859 758.579,20.3153 764,31.5C 767.1,36.8001 771.6,40.3001 777.5,42C 789.167,44.3333 800.833,46.6667 812.5,49C 813.984,49.6622 815.317,50.4955 816.5,51.5C 816.5,53.1667 816.5,54.8333 816.5,56.5C 809.248,64.6167 801.748,72.6167 794,80.5C 789.178,85.314 786.678,91.1473 786.5,98C 787.724,109.513 789.057,121.013 790.5,132.5C 790.558,135.078 789.891,137.411 788.5,139.5C 786.5,139.5 784.5,139.5 782.5,139.5C 774.046,135.108 765.38,130.941 756.5,127C 749.428,123.327 742.095,122.66 734.5,125C 724.287,129.608 714.287,134.441 704.5,139.5C 702.5,139.5 700.5,139.5 698.5,139.5C 696.613,138.232 695.613,136.399 695.5,134C 697.801,119.903 698.968,105.737 699,91.5C 698.194,88.5544 696.861,85.8877 695,83.5C 686.667,74.5 678.333,65.5 670,56.5C 669.043,52.5855 670.543,50.0855 674.5,49C 684.446,46.7442 694.446,44.7442 704.5,43C 711.281,42.027 716.781,38.8604 721,33.5C 727.259,21.9762 733.759,10.6429 740.5,-0.5 Z"/></g>
</svg>
